<svg xmlns="http://www.w3.org/2000/svg" viewBox="0 0 909.62 204.85"><defs><style>.cls-1{fill:#333;}</style></defs><title>Recurso 2</title><g id="Capa_2" data-name="Capa 2"><g id="Capa_2-2" data-name="Capa 2"><path class="cls-1" d="M155,171.84a77.61,77.61,0,0,0,33.62,5.6c8.93-.55,17.19-1.07,22.41-7.47,5.48-6.72,4.25-15.8,3.74-18.68-3.63,1.47-30,11.72-50.31-1.63-27.32-18-26-67.31-3.86-88,18.68-17.51,50.55-13,63.51-11.21A110.86,110.86,0,0,1,246.55,56L246,158.63c0,4.92-.44,20.82-12.06,32.6-9.64,9.78-21.62,11.28-33.94,12.83-9.91,1.25-28.17,2.05-50.55-6.07ZM214.8,76.58a29.66,29.66,0,0,0-13.08-1.87c-.54.05-9.06.85-14.94,5.61-13.43,10.84-11.7,41.06,1.87,48.56,4.41,2.44,11.07,3,16.81,1.87A28.13,28.13,0,0,0,214.8,127Z"/><path class="cls-1" d="M149.42,164.37H125.14c-3.39-.57-7.92-1.93-11.2-5.61-2.78-3.11-3.22-6.13-5.61-13.07a97.27,97.27,0,0,0-5.6-13.08h-56a58,58,0,0,0-5.6,11.21c-2.75,7.42-2.38,11.17-5.6,14.94-1.75,2-4.94,4.55-11.21,5.61H0L57.9,16.81H91.52ZM74.71,46.69,52.3,106.46H97.13Q85.91,76.58,74.71,46.69Z"/><path class="cls-1" d="M480,162.5V183a21.83,21.83,0,0,1-3.73,11.21c-5.24,7.52-15.42,11-26.15,9.34V54.17a133.79,133.79,0,0,1,54-3c11.26,1.73,19.38,3.08,27.77,9,20.24,14.31,21.68,40.95,21.93,45.45.1,1.89,1.68,40.7-23.38,54.63-15.32,8.52-36,5.18-41.51,4.28A79.62,79.62,0,0,1,480,162.5Zm1.87-28c9.27,5.86,20.08,6.65,28,1.87s10-13.56,11.2-18.68c2.71-11.72,1.11-29.56-11.2-37.35a25.45,25.45,0,0,0-13.08-3.74H481.89Z"/><path class="cls-1" d="M439.69,108c-.07,29-14.33,50.17-38.21,56.64-40.08,10.85-74.34-18.25-71.31-60.56,1.92-26.7,15.75-45.89,37.84-52.51C406.68,39.94,439.79,66,439.69,108Zm-66.91,28.3a26.45,26.45,0,0,0,12.8,3.53A25.61,25.61,0,0,0,396.12,137c14.79-8.23,16.31-48.13,1.08-57.64A23.8,23.8,0,0,0,385.27,76a26.38,26.38,0,0,0-12.86,3.66C357.3,89.31,358,127.18,372.78,136.25Z"/><path class="cls-1" d="M669.43,108c-.07,29-14.33,50.17-38.21,56.64-40.08,10.85-74.35-18.25-71.31-60.56,1.92-26.7,15.75-45.89,37.84-52.51C636.42,39.94,669.53,66,669.43,108Zm-66.91,28.3a26.42,26.42,0,0,0,12.79,3.53A25.61,25.61,0,0,0,625.86,137c14.79-8.23,16.31-48.13,1.08-57.64A23.8,23.8,0,0,0,615,76a26.4,26.4,0,0,0-12.87,3.66C587,89.31,587.77,127.18,602.52,136.25Z"/><path class="cls-1" d="M821.83,164.37H790.08V97.13a19.17,19.17,0,0,0-3.74-13.08,18.9,18.9,0,0,0-7.47-5.6c-1-.43-3.24-1.87-9.34-1.87H756.46v87.79H724.7V56a138,138,0,0,1,26.15-5.6C769.69,48.28,790,46,805,57.9c3.55,2.81,13.59,11.78,16.81,31.75Z"/><path class="cls-1" d="M866.66,18.29v34h39.22c.24.83,2.91,10.53-3.74,18.68-6.35,7.8-15.8,7.51-16.81,7.47H866.66V127a14.6,14.6,0,0,0,3.73,9.34c4,4.05,9.78,3.91,16.81,3.73a58.57,58.57,0,0,0,18-3.32q2.22,11.94,4.43,23.87c-29.93,10.38-57.9,5.24-69.11-11.21-2.34-3.43-5.32-9.36-5.61-18.67V24.28Z"/><path class="cls-1" d="M261.49,57.9c1.73-.46,4.32-1.12,7.47-1.87,16.23-3.82,24.35-5.73,33.62-5.6,8.44.12,11.2,1.68,26.15,1.87,2.35,0,4.29,0,5.61,0,3.06,17-1.32,22.36-3.74,24.28-4.88,3.86-15.48,4.55-22.41,3.74-3.11-.37-8.81-1.42-13.08,1.86a11.2,11.2,0,0,0-1.87,1.87v80.32H261.49Z"/><path class="cls-1" d="M710.5,164.11H677.76V51.36H710.5Z"/><circle class="cls-1" cx="694.13" cy="18.68" r="18.68"/></g></g></svg>